<?xml version="1.0" encoding="UTF-8"?>
<!-- Generator: Adobe Illustrator 19.0.0, SVG Export Plug-In . SVG Version: 6.00 Build 0)  -->
<!DOCTYPE svg PUBLIC "-//W3C//DTD SVG 1.1//EN" "http://www.w3.org/Graphics/SVG/1.1/DTD/svg11.dtd">
<svg version="1.1" id="Laag_1" xmlns="http://www.w3.org/2000/svg" xmlns:xlink="http://www.w3.org/1999/xlink" x="0px" y="0px" viewBox="0 0 307.5 333.4" style="enable-background:new 0 0 307.5 333.4;" xml:space="preserve">
<style type="text/css">
	.st0{fill:#0085C0;}
	.st1{fill:#E41F13;}
	.st2{fill:#FFFFFF;}
</style>
<polygon id="XMLID_36_" class="st0" points="6,327.4 6,6 301.4,6 301.5,327.4 "/>
<path id="XMLID_32_" class="st1" d="M25.7,241.1c-10.8,0-19.7-7.7-19.7-17.2V6h295.4l0,217.9c0,9.5-8.8,17.2-19.6,17.2H25.7z"/>
<path id="XMLID_1_" class="st2" d="M307.5,321.4l0-97.2c0-0.1,0-0.2,0-0.3l0-211.9l0-12h-12H12H0v12v86.3v125.6v97.5v12h12h283.5h12  L307.5,321.4z M295.5,224c-0.1,6.1-6.2,11.1-13.6,11.1H25.7c-7.5,0-13.7-5-13.7-11.2V12h283.4L295.5,224z M12,321.4v-77.8  c4,2.3,8.6,3.6,13.7,3.6h256.2c5,0,9.7-1.3,13.6-3.6l0,77.8H12z"/>
<path id="XMLID_27_" class="st2" d="M164.9,71.2h-30v78.6c0,3.2-0.1,5.8-0.2,5.8c-0.1,0-1.7-2.1-3.6-4.6l-56-75.2  c-1.9-2.5-6-4.6-9-4.6H39.5c-3.1,0-5.6,2.6-5.6,5.8v130.4c0,3.2,2.5,5.8,5.6,5.8h30v-78.8c0-3.2,0.1-5.8,0.2-5.8  c0.1,0,1.7,2.1,3.6,4.6l56,75.4c1.9,2.5,5.9,4.6,9,4.6h26.7c3.1,0,5.6-2.6,5.6-5.8V77C170.5,73.8,168,71.2,164.9,71.2z"/>
<path id="XMLID_26_" class="st2" d="M267.8,182h-38.5c0-0.9,0-80,0-110.8h-36.9v136.2c0,3.2,2.6,5.8,5.8,5.8h69.6  c3.2,0,5.8-2.6,5.8-5.8v-19.6C273.6,184.6,271,182,267.8,182z"/>
<path id="XMLID_23_" class="st2" d="M61.8,46.6c0,8.5-6.1,14.6-14.6,14.6c-8.5,0-14.6-6-14.6-14.6c0-8,7-13.6,14.6-13.6  C54.8,33,61.8,38.6,61.8,46.6z M39.7,46.6c0,4.6,3.4,7.9,7.5,7.9c4.1,0,7.5-3.3,7.5-7.9c0-3.6-3.4-7-7.5-7  C43.1,39.7,39.7,43,39.7,46.6z"/>
<path id="XMLID_21_" class="st2" d="M65,33.9h6.9L84.4,50h0.1V33.9h6.9v26.4h-6.9L71.9,44.1h-0.1v16.2H65V33.9z"/>
<path id="XMLID_18_" class="st2" d="M95.8,33.9h9.7c7.4,0,13.4,5.8,13.4,13.2c0,7.4-6.1,13.2-13.4,13.2h-9.7V33.9z M102.7,54.5h1.5  c4.1,0,7.6-2.2,7.6-7.4c0-4.7-3.1-7.4-7.5-7.4h-1.6V54.5z"/>
<path id="XMLID_16_" class="st2" d="M129.1,39.7v4.4h7.7v5.8h-7.7v4.6h8.2v5.8h-15V33.9h15v5.8H129.1z"/>
<path id="XMLID_13_" class="st2" d="M163.4,60.3h-8.5l-6.5-10.2h-0.1v10.2h-6.9V33.9h10.3c5.2,0,9.2,2.5,9.2,8.1  c0,3.7-2,6.8-5.8,7.5L163.4,60.3z M148.3,45.7h0.7c2.2,0,4.8-0.4,4.8-3.3c0-2.9-2.5-3.3-4.8-3.3h-0.7V45.7z"/>
<path id="XMLID_11_" class="st2" d="M182.1,44.1V33.9h6.9v26.4h-6.9V49.5h-9.9v10.8h-6.9V33.9h6.9v10.2H182.1z"/>
<path id="XMLID_8_" class="st2" d="M221.3,46.6c0,8.5-6.1,14.6-14.6,14.6c-8.5,0-14.6-6-14.6-14.6c0-8,7-13.6,14.6-13.6  C214.3,33,221.3,38.6,221.3,46.6z M199.2,46.6c0,4.6,3.4,7.9,7.5,7.9c4.1,0,7.5-3.3,7.5-7.9c0-3.6-3.4-7-7.5-7  C202.6,39.7,199.2,43,199.2,46.6z"/>
<path id="XMLID_6_" class="st2" d="M247.4,33.9v14.9c0,3.4-0.1,6.8-2.8,9.3c-2.2,2.2-5.7,2.9-8.8,2.9c-3.1,0-6.5-0.8-8.8-2.9  c-2.6-2.6-2.8-5.9-2.8-9.3V33.9h6.9v13.9c0,3.4,0.2,7.2,4.7,7.2c4.4,0,4.7-3.8,4.7-7.2V33.9H247.4z"/>
<path id="XMLID_5_" class="st2" d="M251.8,33.9h9.7c7.4,0,13.4,5.8,13.4,13.2c0,7.4-6.1,13.2-13.4,13.2h-9.7V33.9z M258.6,54.5h1.5  c4.1,0,7.6-2.2,7.6-7.4c0-4.7-3.1-7.4-7.5-7.4h-1.6V54.5z"/>
<g id="XMLID_30_">
	<path id="XMLID_140_" class="st2" d="M67.8,279.3c-0.1,4.7-0.4,8.8-3.3,12.8c-3.2,4.4-7.9,6.4-13.4,6.4c-10.2,0-17.3-6.9-17.3-17.1   c0-10.5,7.1-17.4,17.6-17.4c6.7,0,11.8,3,14.6,9.1l-8,3.3c-1.2-3.1-3.6-5.2-7-5.2c-5.5,0-8.4,5.3-8.4,10.2c0,5,3,10.1,8.5,10.1   c3.7,0,6.4-1.9,6.8-5.6h-6.9v-6.6H67.8z"/>
	<path id="XMLID_137_" class="st2" d="M79.9,291.8l-2.2,5.6h-8.9L81.2,265h9.2l12.2,32.4h-9l-2.1-5.6H79.9z M85.8,275L85.8,275   l-3.6,10.3h7L85.8,275z"/>
	<path id="XMLID_134_" class="st2" d="M133.8,297.4h-10.5l-7.9-12.5h-0.1v12.5h-8.4V265h12.6c6.4,0,11.3,3,11.3,10   c0,4.5-2.5,8.3-7.1,9.1L133.8,297.4z M115.3,279.5h0.8c2.7,0,5.8-0.5,5.8-4c0-3.5-3.1-4-5.8-4h-0.8V279.5z"/>
	<path id="XMLID_125_" class="st2" d="M147.7,291.8l-2.2,5.6h-8.9L149,265h9.2l12.2,32.4h-9l-2.1-5.6H147.7z M153.6,275L153.6,275   l-3.6,10.3h7L153.6,275z"/>
	<path id="XMLID_121_" class="st2" d="M174.7,265h8.4l15.4,19.8h0.1V265h8.4v32.4h-8.4l-15.4-19.8h-0.1v19.8h-8.4V265z"/>
	<path id="XMLID_117_" class="st2" d="M227.1,297.4h-8.4v-25.3h-7V265h22.3v7.1h-7V297.4z"/>
	<path id="XMLID_115_" class="st2" d="M248.4,297.4H240V265h8.4V297.4z"/>
	<path id="XMLID_112_" class="st2" d="M263.6,272.1v5.4h9.5v7.1h-9.5v5.6h10v7.1h-18.4V265h18.4v7.1H263.6z"/>
</g>
</svg>