<?xml version="1.0" encoding="utf-8"?>
<!-- Generator: Adobe Illustrator 21.1.0, SVG Export Plug-In . SVG Version: 6.00 Build 0)  -->
<svg version="1.1" id="Laag_1" xmlns="http://www.w3.org/2000/svg" xmlns:xlink="http://www.w3.org/1999/xlink" x="0px" y="0px"
	 viewBox="0 0 187.2 37.7" style="enable-background:new 0 0 187.2 37.7;" xml:space="preserve">
<style type="text/css">
	.st0{fill:#3A3938;}
	.st1{fill:#E20613;}
</style>
<g>
	<g>
		<path class="st0" d="M47.5,5.5h-1.2c0-0.8-0.1-1.4-0.4-1.6c-0.3-0.2-0.9-0.3-2-0.3c-1.2,0-2,0.1-2.4,0.3C41.1,4.1,41,4.6,41,5.4
			c0,0.8,0.1,1.4,0.4,1.6c0.3,0.2,1.1,0.3,2.5,0.4c1.6,0.1,2.7,0.3,3.1,0.6c0.4,0.3,0.7,1.1,0.7,2.3c0,1.3-0.3,2.1-0.8,2.5
			c-0.5,0.4-1.6,0.6-3.4,0.6c-1.5,0-2.5-0.2-3-0.6c-0.5-0.4-0.8-1.2-0.8-2.3l0-0.5h1.2v0.3c0,0.9,0.1,1.5,0.4,1.8
			c0.3,0.2,1,0.3,2.2,0.3c1.4,0,2.2-0.1,2.5-0.3c0.3-0.2,0.5-0.8,0.5-1.8c0-0.6-0.1-1.1-0.3-1.3c-0.2-0.2-0.7-0.3-1.3-0.4l-1.2-0.1
			l-1.2-0.1c-1.8-0.1-2.7-1-2.7-2.8c0-1.2,0.3-2,0.8-2.4c0.5-0.4,1.6-0.6,3.1-0.6c1.6,0,2.6,0.2,3.1,0.6C47.3,3.5,47.5,4.3,47.5,5.5
			z"/>
	</g>
	<g>
		<path class="st0" d="M58.4,10.4h1v0.3c0,1.2-0.2,1.9-0.6,2.2c-0.4,0.3-1.4,0.4-3,0.4c-1.4,0-2.3-0.3-2.7-0.8s-0.6-1.7-0.6-3.6
			c0-1.5,0-2.4,0.1-2.8s0.3-0.7,0.8-1c0.5-0.4,1.5-0.5,3.1-0.5c1.1,0,1.8,0.2,2.2,0.5c0.4,0.3,0.6,1,0.6,2l0,0.2h-1l0-0.3
			c0-0.7-0.1-1.1-0.3-1.3c-0.2-0.2-0.7-0.3-1.5-0.3c-1.4,0-2.2,0.1-2.5,0.3c-0.3,0.2-0.5,0.9-0.5,1.9c0,2.4,0.1,3.8,0.3,4.2
			c0.2,0.4,0.9,0.6,2.1,0.6c1.1,0,1.8-0.1,2.1-0.3c0.3-0.2,0.4-0.6,0.4-1.4L58.4,10.4z"/>
		<path class="st0" d="M70.4,4.7v8.6h-1v-4h-5v4h-1V4.7h1v3.8h5V4.7H70.4z"/>
		<path class="st0" d="M76.1,4.7v8.6h-1V4.7H76.1z"/>
		<path class="st0" d="M81.8,4.7v7.7h4.4v0.9h-5.4V4.7H81.8z"/>
	</g>
	<g>
		<path class="st0" d="M90.2,13.2V4.7h4c1.2,0,2.1,0.3,2.5,0.8C97.1,6,97.3,7,97.3,8.6c0,1.9-0.2,3.1-0.6,3.7
			c-0.4,0.6-1.2,0.9-2.3,0.9H90.2z M91.1,12.4h2.8c1,0,1.7-0.2,2-0.6c0.3-0.4,0.4-1.3,0.4-2.7c0-1.6-0.1-2.5-0.4-3
			c-0.3-0.4-0.9-0.6-1.8-0.6h-3V12.4z"/>
		<path class="st0" d="M102.3,5.5v2.9h4.4v0.8h-4.4v3.2h4.5v0.8h-5.5V4.7h5.5v0.8H102.3z"/>
		<path class="st0" d="M111.1,13.2V4.7h4.1c0.9,0,1.6,0.2,1.9,0.5c0.4,0.4,0.6,1,0.6,1.9c0,0.8-0.1,1.3-0.3,1.7
			c-0.2,0.3-0.6,0.5-1.2,0.6v0c0.9,0.1,1.4,0.6,1.4,1.7v2.2h-1v-2c0-1-0.4-1.5-1.3-1.5H115h-2.9v3.5H111.1z M112.1,8.9h2.8
			c0.7,0,1.2-0.1,1.5-0.3c0.3-0.2,0.4-0.6,0.4-1.3c0-0.8-0.1-1.3-0.3-1.5s-0.6-0.4-1.3-0.4h-3.1V8.9z"/>
	</g>
	<g>
		<path class="st0" d="M134.2,4.7l-2.7,8.6H130l-1.8-6.2L128,6.3c0,0,0-0.2-0.1-0.4l-0.1-0.4h0l-0.1,0.4l-0.1,0.4l-0.2,0.8l-1.8,6.2
			H124l-2.6-8.6h1l1.8,6.2l0.3,0.8c0,0.1,0.1,0.2,0.1,0.4l0.1,0.4h0l0.1-0.4l0.1-0.4l0.2-0.8l1.8-6.2h1.4l1.8,6.2l0.2,0.8l0.1,0.4
			l0.1,0.4h0l0.1-0.4l0.1-0.4l0.3-0.8l1.9-6.1H134.2z"/>
	</g>
	<g>
		<path class="st0" d="M138.8,5.5v2.9h4.4v0.8h-4.4v3.2h4.5v0.8h-5.5V4.7h5.5v0.8H138.8z"/>
		<path class="st0" d="M147.6,13.2V4.7h4.1c0.9,0,1.6,0.2,1.9,0.5c0.4,0.4,0.6,1,0.6,1.9c0,0.8-0.1,1.3-0.3,1.7
			c-0.2,0.3-0.6,0.5-1.2,0.6v0c0.9,0.1,1.4,0.6,1.4,1.7v2.2h-1v-2c0-1-0.4-1.5-1.3-1.5h-0.3h-2.9v3.5H147.6z M148.6,8.9h2.8
			c0.7,0,1.2-0.1,1.5-0.3c0.3-0.2,0.4-0.6,0.4-1.3c0-0.8-0.1-1.3-0.3-1.5s-0.6-0.4-1.3-0.4h-3.1V8.9z"/>
		<path class="st0" d="M159.6,4.7v3.7h0.8l3.5-3.7h1.2l-3.9,4.1l4.4,4.4h-1.3l-3.9-4h-0.8v4h-1V4.7H159.6z"/>
		<path class="st0" d="M170.1,5.5v2.9h4.4v0.8h-4.4v3.2h4.5v0.8h-5.5V4.7h5.5v0.8H170.1z"/>
	</g>
	<g>
		<path class="st0" d="M186.3,4.7v8.6h-1.6l-3.6-5.8l-0.6-1L180.3,6L180,5.5h0l0,0.3l0,0.3v0.6v6.5h-1V4.7h1.6l3.1,5.1l0.8,1.3
			l0.4,0.7l0.4,0.7h0l0-0.3l0-0.3v-0.6V4.7H186.3z"/>
	</g>
	<path class="st1" d="M0,31.7h2.3c3.1,0,3.3-2.9,3.3-3.1V2.6H0 M13.5,26.3v6c-0.1,4.7-2.9,5.3-3.7,5.4h15.9l-9.6-14.1L13.5,26.3z
		 M21.6,17.9l13.5,19V4.2L21.6,17.9z M13.5,2.6v12.7l13-12.7H13.5z"/>
	<polyline class="st0" points="43.2,19 43.2,26.5 44.8,26.5 51,19 55.3,19 47.9,27.9 56.1,37.4 51.6,37.4 44.9,29.4 43.2,29.4 
		43.2,37.4 39.7,37.4 39.7,19 	"/>
	<path class="st0" d="M65.2,18.8c3.4,0,5.5,0.6,6.5,1.7c1,1.1,1.4,3.6,1.4,7.5c0,4.2-0.5,6.9-1.5,8c-1,1.1-3.3,1.6-7,1.6
		c-3.4,0-5.5-0.5-6.5-1.6c-1-1.1-1.5-3.5-1.5-7.2c0-4.4,0.5-7.2,1.4-8.3S61.4,18.8,65.2,18.8 M64.9,21.8c-2.4,0-3.7,0.3-4.1,0.9
		c-0.4,0.6-0.6,2.7-0.6,6.3c0,2.6,0.2,4.2,0.7,4.8c0.5,0.5,1.8,0.8,4.1,0.8c2.2,0,3.5-0.3,3.9-0.9c0.4-0.6,0.6-2.5,0.6-5.5
		c0-3.1-0.2-4.9-0.6-5.5C68.5,22.1,67.2,21.8,64.9,21.8"/>
	<path class="st0" d="M83.1,18.8c3.4,0,5.5,0.6,6.5,1.7c1,1.1,1.4,3.6,1.4,7.5c0,4.2-0.5,6.9-1.5,8c-1,1.1-3.3,1.6-7,1.6
		c-3.4,0-5.5-0.5-6.5-1.6c-1-1.1-1.5-3.5-1.5-7.2c0-4.4,0.5-7.2,1.4-8.3S79.4,18.8,83.1,18.8 M82.9,21.8c-2.4,0-3.7,0.3-4.1,0.9
		s-0.6,2.7-0.6,6.3c0,2.6,0.2,4.2,0.7,4.8c0.5,0.5,1.8,0.8,4.1,0.8c2.2,0,3.5-0.3,3.9-0.9c0.4-0.6,0.6-2.5,0.6-5.5
		c0-3.1-0.2-4.9-0.6-5.5S85.1,21.8,82.9,21.8"/>
	<path class="st0" d="M93.4,37.4V19h8.4c2.5,0,4.2,0.4,5,1.3c0.9,0.9,1.3,2.5,1.3,5c0,2.5-0.4,4.1-1.2,4.9c-0.8,0.8-2.5,1.2-5,1.2
		l-0.8,0h-4.1v6 M96.9,28.5h4c1.6,0,2.6-0.2,3-0.5c0.4-0.4,0.6-1.2,0.6-2.6c0-1.6-0.2-2.5-0.5-2.9c-0.4-0.4-1.3-0.6-2.8-0.6h-4.3
		V28.5z"/>
	<path class="st0" d="M131.9,19v18.4h-3.5V27.4c0-0.8,0-1.7,0.1-2.7l0.1-1.4l0.1-1.4h-0.1l-0.4,1.3l-0.4,1.3c-0.4,1.2-0.7,2-0.9,2.6
		l-4.1,10.4h-3.2l-4.1-10.3c-0.2-0.6-0.5-1.4-0.9-2.6l-0.4-1.3l-0.4-1.3h-0.1l0.1,1.3l0.1,1.4c0.1,1,0.1,1.9,0.1,2.7v10.1h-3.5V19
		h5.7l3.3,8.5c0.2,0.6,0.5,1.4,0.9,2.6l0.4,1.3l0.4,1.3h0.1l0.4-1.3l0.4-1.3c0.3-1.1,0.6-1.9,0.9-2.5l3.2-8.6"/>
	<path class="st0" d="M146.3,33.9h-8l-1.1,3.5h-3.7l6.1-18.4h5.3l6.2,18.4h-3.6 M145.5,31.3l-3.2-9.6l-3.1,9.6H145.5z"/>
	<path class="st0" d="M169.9,19v18.4h-5.9l-5.3-10.1c-0.3-0.5-0.7-1.4-1.2-2.6l-0.6-1.3l-0.6-1.3h-0.1l0.1,1.2l0,1.2l0,2.4v10.6
		h-3.5V19h5.9l4.8,9.4c0.4,0.8,0.9,1.8,1.5,3l0.7,1.5l0.7,1.5h0.1l0-1.2l0-1.2l0-2.4V19"/>
	<path class="st0" d="M186.8,24.4h-3.4c0-0.2,0-0.3,0-0.4c-0.1-1-0.3-1.7-0.7-2c-0.4-0.3-1.3-0.4-2.7-0.4c-1.7,0-2.7,0.2-3.3,0.5
		c-0.5,0.3-0.8,1-0.8,1.9c0,1.2,0.2,1.9,0.6,2.1c0.4,0.2,1.8,0.4,4.1,0.5c2.7,0.2,4.5,0.5,5.3,1.2c0.8,0.6,1.2,1.9,1.2,3.9
		c0,2.5-0.5,4-1.4,4.8c-0.9,0.7-3,1.1-6.3,1.1c-2.9,0-4.8-0.4-5.8-1.1c-0.9-0.7-1.4-2.1-1.4-4.3l0-0.7h3.4l0,0.4
		c0,1.3,0.2,2.1,0.7,2.4c0.5,0.3,1.7,0.4,3.7,0.4c1.6,0,2.6-0.2,3-0.5c0.4-0.3,0.6-1.1,0.6-2.3c0-0.9-0.2-1.5-0.5-1.8
		c-0.3-0.3-1-0.5-2.1-0.5l-1.9-0.1c-2.9-0.2-4.8-0.6-5.6-1.2c-0.8-0.6-1.2-2-1.2-4.1c0-2.2,0.5-3.6,1.5-4.3c1-0.7,2.9-1.1,5.9-1.1
		c2.8,0,4.6,0.3,5.6,1c1,0.7,1.4,1.9,1.4,3.9"/>
</g>
</svg>
