<?xml version="1.0" encoding="utf-8"?>
<!-- Generator: Adobe Illustrator 21.1.0, SVG Export Plug-In . SVG Version: 6.00 Build 0)  -->
<svg version="1.1" id="Layer_1" xmlns="http://www.w3.org/2000/svg" xmlns:xlink="http://www.w3.org/1999/xlink" x="0px" y="0px"
	 viewBox="0 0 195.8 93.5" style="enable-background:new 0 0 195.8 93.5;" xml:space="preserve">
<style type="text/css">
	.st0{fill:#65AD90;}
	.st1{opacity:0.5;fill:#FFFFFF;}
	.st2{fill:url(#SVGID_1_);}
	.st3{fill:url(#SVGID_2_);}
	.st4{fill:#293F84;}
</style>
<g>
	<polygon class="st0" points="14.5,92.4 86.2,92.4 54.2,28.4 	"/>
	<polygon class="st1" points="4.7,93.5 149.8,5.2 48,25.8 	"/>
	<path class="st1" d="M59.9,92c13.7,0,24.8-11.1,24.8-24.8c0-13.7-11.1-24.8-24.8-24.8S35.1,53.4,35.1,67.1
		C35.1,80.8,46.2,92,59.9,92"/>
	
		<radialGradient id="SVGID_1_" cx="-94.053" cy="190.0084" r="1" gradientTransform="matrix(24.8288 0 0 24.8301 2390.3943 -4655.9629)" gradientUnits="userSpaceOnUse">
		<stop  offset="0" style="stop-color:#FFFFFF"/>
		<stop  offset="0.1224" style="stop-color:#F7FBF9"/>
		<stop  offset="0.3132" style="stop-color:#E1EFE9"/>
		<stop  offset="0.5483" style="stop-color:#BDDCCF"/>
		<stop  offset="0.8162" style="stop-color:#8BC1AC"/>
		<stop  offset="1" style="stop-color:#65AD90"/>
	</radialGradient>
	<circle class="st2" cx="55.2" cy="62" r="24.8"/>
	
		<linearGradient id="SVGID_2_" gradientUnits="userSpaceOnUse" x1="-97.3246" y1="183.671" x2="-96.3246" y2="183.671" gradientTransform="matrix(145.0981 0 0 145.0981 14121.6133 -26606.166)">
		<stop  offset="0" style="stop-color:#65AD90"/>
		<stop  offset="0.1224" style="stop-color:#6DB196"/>
		<stop  offset="0.3132" style="stop-color:#83BDA6"/>
		<stop  offset="0.5483" style="stop-color:#A7D0C0"/>
		<stop  offset="0.8162" style="stop-color:#D9EBE3"/>
		<stop  offset="1" style="stop-color:#FFFFFF"/>
	</linearGradient>
	<polygon class="st3" points="43.4,20.7 0,88.3 145.1,0 	"/>
	<polygon class="st4" points="107.1,53.6 102.9,40.6 105.8,40.6 108.7,49.7 108.8,49.7 111.7,40.6 114.6,40.6 110.3,53.6 	"/>
	<g>
		<path class="st4" d="M126.7,53.5c-0.4,0.2-0.9,0.3-1.3,0.3c-0.7,0-1.3-0.1-1.9-0.4c-0.6-0.2-1-0.6-1.4-1c-0.4-0.4-0.7-0.9-0.9-1.5
			c-0.2-0.6-0.3-1.2-0.3-1.8c0-0.7,0.1-1.3,0.3-1.9c0.2-0.6,0.5-1.1,0.9-1.5c0.4-0.4,0.8-0.8,1.4-1c0.6-0.2,1.2-0.4,1.9-0.4
			c0.5,0,0.9,0.1,1.4,0.2c0.4,0.1,0.8,0.3,1.2,0.6c0.4,0.3,0.6,0.6,0.9,1c0.2,0.4,0.4,0.9,0.4,1.4h-1.9c-0.1-0.5-0.3-0.9-0.7-1.1
			s-0.8-0.4-1.2-0.4c-0.4,0-0.8,0.1-1.1,0.3c-0.3,0.2-0.6,0.4-0.8,0.7c-0.2,0.3-0.3,0.6-0.4,1c-0.1,0.4-0.1,0.8-0.1,1.2
			c0,0.4,0,0.8,0.1,1.1c0.1,0.4,0.2,0.7,0.4,1c0.2,0.3,0.4,0.5,0.8,0.7c0.3,0.2,0.7,0.3,1.1,0.3c0.7,0,1.2-0.2,1.5-0.5
			c0.4-0.3,0.6-0.8,0.6-1.5h-2v-1.5h3.8v4.9h-1.3l-0.2-1C127.6,53,127.2,53.3,126.7,53.5"/>
	</g>
	<polygon class="st4" points="134.2,44.5 136.3,50.7 136.3,50.7 138.3,44.5 141.1,44.5 141.1,53.6 139.3,53.6 139.3,47.1 
		139.3,47.1 137,53.6 135.5,53.6 133.3,47.2 133.2,47.2 133.2,53.6 131.4,53.6 131.4,44.5 	"/>
	<g>
		<path class="st4" d="M112.6,63.5c-0.2-0.3-0.4-0.5-0.6-0.7s-0.5-0.4-0.9-0.5c-0.3-0.1-0.7-0.2-1-0.2c-0.6,0-1.2,0.1-1.6,0.4
			s-0.8,0.6-1.1,1s-0.5,0.9-0.6,1.4c-0.1,0.5-0.2,1.1-0.2,1.7c0,0.5,0.1,1.1,0.2,1.6c0.1,0.5,0.3,1,0.6,1.4c0.3,0.4,0.6,0.7,1.1,1
			c0.4,0.2,1,0.4,1.6,0.4c0.9,0,1.6-0.3,2-0.8c0.5-0.5,0.8-1.2,0.9-2.1h2.8c-0.1,0.8-0.3,1.5-0.6,2.2c-0.3,0.7-0.7,1.2-1.2,1.7
			c-0.5,0.5-1.1,0.8-1.7,1.1c-0.7,0.2-1.4,0.4-2.2,0.4c-1,0-1.9-0.2-2.7-0.5c-0.8-0.3-1.5-0.8-2-1.4c-0.5-0.6-1-1.3-1.3-2.1
			c-0.3-0.8-0.4-1.7-0.4-2.6c0-1,0.1-1.9,0.4-2.7c0.3-0.8,0.7-1.6,1.3-2.2c0.5-0.6,1.2-1.1,2-1.5c0.8-0.3,1.7-0.5,2.7-0.5
			c0.7,0,1.4,0.1,2,0.3s1.2,0.5,1.7,0.9c0.5,0.4,0.9,0.9,1.2,1.5c0.3,0.6,0.5,1.2,0.6,2h-2.8C112.9,64.1,112.8,63.8,112.6,63.5"/>
	</g>
	<polygon class="st4" points="123.3,64 123.3,67.4 127,67.4 127,64 129,64 129,73 127,73 127,69.1 123.3,69.1 123.3,73 121.3,73 
		121.3,64 	"/>
	<polygon class="st4" points="137.9,64 137.9,65.6 133.1,65.6 133.1,67.6 137.5,67.6 137.5,69.1 133.1,69.1 133.1,71.4 138,71.4 
		138,73 131.1,73 131.1,64 	"/>
	<g>
		<path class="st4" d="M145.6,66.4c-0.1-0.2-0.3-0.4-0.4-0.5c-0.2-0.1-0.4-0.3-0.6-0.3c-0.2-0.1-0.5-0.1-0.7-0.1
			c-0.4,0-0.8,0.1-1.1,0.3c-0.3,0.2-0.6,0.4-0.8,0.7c-0.2,0.3-0.3,0.6-0.4,1c-0.1,0.4-0.1,0.8-0.1,1.2c0,0.4,0,0.8,0.1,1.1
			c0.1,0.4,0.2,0.7,0.4,1c0.2,0.3,0.4,0.5,0.8,0.7c0.3,0.2,0.7,0.3,1.1,0.3c0.6,0,1.1-0.2,1.4-0.6c0.3-0.4,0.6-0.9,0.6-1.5h1.9
			c-0.1,0.6-0.2,1.1-0.4,1.5c-0.2,0.5-0.5,0.8-0.8,1.2c-0.3,0.3-0.8,0.6-1.2,0.7c-0.5,0.2-1,0.3-1.5,0.3c-0.7,0-1.3-0.1-1.9-0.4
			c-0.6-0.2-1-0.6-1.4-1c-0.4-0.4-0.7-0.9-0.9-1.5c-0.2-0.6-0.3-1.2-0.3-1.8c0-0.7,0.1-1.3,0.3-1.9c0.2-0.6,0.5-1.1,0.9-1.5
			c0.4-0.4,0.8-0.8,1.4-1c0.6-0.2,1.2-0.4,1.9-0.4c0.5,0,1,0.1,1.4,0.2c0.4,0.1,0.8,0.4,1.2,0.6c0.4,0.3,0.6,0.6,0.9,1
			c0.2,0.4,0.4,0.9,0.4,1.4h-1.9C145.8,66.8,145.7,66.6,145.6,66.4"/>
	</g>
	<polygon class="st4" points="151.6,64 151.6,67.7 155.1,64 157.6,64 154,67.5 157.9,73 155.4,73 152.7,68.9 151.6,70.1 151.6,73 
		149.6,73 149.6,64 	"/>
	<polygon class="st4" points="161.1,64 161.1,71.4 165.5,71.4 165.5,73 159.1,73 159.1,64 	"/>
	<rect x="167" y="64" class="st4" width="2" height="9.1"/>
	<g>
		<path class="st4" d="M172.7,70.8c0.1,0.2,0.3,0.4,0.4,0.5c0.2,0.1,0.4,0.2,0.6,0.3c0.2,0.1,0.5,0.1,0.8,0.1c0.2,0,0.4,0,0.6,0
			c0.2,0,0.4-0.1,0.6-0.2c0.2-0.1,0.3-0.2,0.4-0.4s0.2-0.3,0.2-0.6c0-0.2-0.1-0.4-0.2-0.6c-0.2-0.2-0.4-0.3-0.6-0.4
			c-0.3-0.1-0.5-0.2-0.9-0.3c-0.3-0.1-0.6-0.2-1-0.3c-0.3-0.1-0.7-0.2-1-0.3c-0.3-0.1-0.6-0.3-0.9-0.5s-0.5-0.4-0.6-0.7
			s-0.2-0.6-0.2-1.1c0-0.5,0.1-0.9,0.3-1.2c0.2-0.3,0.5-0.6,0.8-0.9c0.3-0.2,0.7-0.4,1.1-0.5c0.4-0.1,0.8-0.2,1.2-0.2
			c0.5,0,0.9,0.1,1.4,0.2c0.4,0.1,0.8,0.3,1.2,0.5c0.3,0.2,0.6,0.5,0.8,0.9c0.2,0.4,0.3,0.8,0.3,1.3H176c0-0.3-0.1-0.5-0.2-0.7
			c-0.1-0.2-0.2-0.3-0.4-0.4c-0.2-0.1-0.3-0.2-0.6-0.2c-0.2,0-0.4-0.1-0.7-0.1c-0.2,0-0.3,0-0.5,0.1c-0.2,0-0.3,0.1-0.4,0.2
			c-0.1,0.1-0.2,0.2-0.3,0.3c-0.1,0.1-0.1,0.3-0.1,0.5c0,0.2,0,0.3,0.1,0.4c0.1,0.1,0.2,0.2,0.4,0.3c0.2,0.1,0.5,0.2,0.8,0.3
			c0.4,0.1,0.8,0.2,1.4,0.4c0.2,0,0.4,0.1,0.7,0.2c0.3,0.1,0.6,0.2,0.9,0.4c0.3,0.2,0.6,0.5,0.8,0.8c0.2,0.3,0.3,0.7,0.3,1.3
			c0,0.4-0.1,0.8-0.2,1.2c-0.2,0.4-0.4,0.7-0.7,0.9c-0.3,0.3-0.7,0.5-1.2,0.6c-0.5,0.1-1,0.2-1.6,0.2c-0.5,0-1-0.1-1.5-0.2
			c-0.5-0.1-0.9-0.3-1.2-0.6s-0.6-0.6-0.9-1c-0.2-0.4-0.3-0.9-0.3-1.4h1.9C172.5,70.3,172.6,70.6,172.7,70.8"/>
	</g>
	<polygon class="st4" points="179.1,65.6 179.1,64 186.5,64 186.5,65.6 183.8,65.6 183.8,73 181.8,73 181.8,65.6 	"/>
	<path class="st4" d="M109.3,82.7L109.3,82.7l1.7,4.8h-3.4L109.3,82.7z M107.8,79.5l-4.9,13h2.9l1-2.9h4.8l1,2.9h3l-4.8-13H107.8z"
		/>
	<path class="st4" d="M124.8,85.6L124.8,85.6L126,89h-2.4L124.8,85.6z M123.8,83.4l-3.4,9.1h2l0.7-2h3.4l0.7,2h2.1l-3.4-9.1H123.8z"
		/>
	<polygon class="st4" points="136.2,83.4 136.2,89.5 136.2,89.5 132.4,83.4 130.4,83.4 130.4,92.5 132.3,92.5 132.3,86.4 
		132.3,86.4 136.1,92.5 138.1,92.5 138.1,83.4 	"/>
	<polygon class="st4" points="146,83.4 146,89.5 146,89.5 142.2,83.4 140.2,83.4 140.2,92.5 142.1,92.5 142.1,86.4 142.1,86.4 
		145.9,92.5 147.9,92.5 147.9,83.4 	"/>
	<polygon class="st4" points="150,83.4 150,92.5 156.9,92.5 156.9,90.8 152,90.8 152,88.6 156.4,88.6 156.4,87 152,87 152,85.1 
		156.8,85.1 156.8,83.4 	"/>
	<polygon class="st4" points="165.6,83.4 163.6,89.6 163.6,89.6 161.5,83.4 158.6,83.4 158.6,92.5 160.5,92.5 160.5,86.1 
		160.5,86.1 162.8,92.5 164.3,92.5 166.5,86 166.6,86 166.6,92.5 168.4,92.5 168.4,83.4 	"/>
	<polygon class="st4" points="170.6,83.4 170.6,92.5 177.4,92.5 177.4,90.8 172.6,90.8 172.6,88.6 176.9,88.6 176.9,87 172.6,87 
		172.6,85.1 177.3,85.1 177.3,83.4 	"/>
	<g>
		<path class="st4" d="M183.4,87.5c0.5,0,0.8-0.1,1-0.3c0.2-0.2,0.3-0.5,0.3-1c0-0.4-0.1-0.8-0.3-1c-0.2-0.2-0.6-0.3-1-0.3h-2.2v2.6
			H183.4z M184.1,83.4c0.4,0,0.8,0.1,1.1,0.2c0.3,0.1,0.6,0.3,0.8,0.5c0.2,0.2,0.4,0.5,0.5,0.8c0.1,0.3,0.2,0.6,0.2,1
			c0,0.5-0.1,1-0.3,1.4c-0.2,0.4-0.6,0.7-1.1,0.9v0c0.2,0.1,0.4,0.2,0.6,0.3c0.2,0.1,0.3,0.3,0.4,0.5c0.1,0.2,0.2,0.4,0.2,0.6
			c0,0.2,0.1,0.5,0.1,0.7c0,0.1,0,0.3,0,0.5c0,0.2,0,0.4,0,0.6c0,0.2,0.1,0.4,0.1,0.6c0,0.2,0.1,0.3,0.2,0.5h-2
			c-0.1-0.3-0.2-0.6-0.2-1c0-0.4-0.1-0.8-0.1-1.1c-0.1-0.5-0.2-0.8-0.4-1s-0.6-0.3-1.1-0.3h-2v3.5h-2v-9.1L184.1,83.4L184.1,83.4z"
			/>
		<path class="st4" d="M190.3,90.2c0.1,0.2,0.3,0.4,0.4,0.5c0.2,0.1,0.4,0.2,0.6,0.3c0.2,0.1,0.5,0.1,0.8,0.1c0.2,0,0.4,0,0.6,0
			c0.2,0,0.4-0.1,0.6-0.2c0.2-0.1,0.3-0.2,0.4-0.3c0.1-0.1,0.2-0.3,0.2-0.6c0-0.2-0.1-0.4-0.2-0.6c-0.2-0.2-0.4-0.3-0.6-0.4
			c-0.3-0.1-0.5-0.2-0.9-0.3s-0.6-0.2-1-0.3c-0.3-0.1-0.7-0.2-1-0.3s-0.6-0.3-0.9-0.5c-0.3-0.2-0.5-0.4-0.6-0.7
			c-0.2-0.3-0.2-0.6-0.2-1.1c0-0.5,0.1-0.9,0.3-1.2c0.2-0.3,0.5-0.6,0.8-0.9c0.3-0.2,0.7-0.4,1.1-0.5c0.4-0.1,0.8-0.2,1.2-0.2
			c0.5,0,0.9,0.1,1.4,0.2c0.4,0.1,0.8,0.3,1.2,0.5c0.3,0.2,0.6,0.5,0.8,0.9c0.2,0.4,0.3,0.8,0.3,1.3h-1.9c0-0.3-0.1-0.5-0.2-0.7
			c-0.1-0.2-0.2-0.3-0.4-0.4c-0.2-0.1-0.3-0.2-0.6-0.2c-0.2,0-0.4-0.1-0.7-0.1c-0.2,0-0.3,0-0.5,0.1c-0.2,0-0.3,0.1-0.4,0.2
			c-0.1,0.1-0.2,0.2-0.3,0.3c-0.1,0.1-0.1,0.3-0.1,0.5c0,0.2,0,0.3,0.1,0.4c0.1,0.1,0.2,0.2,0.4,0.3c0.2,0.1,0.5,0.2,0.8,0.3
			c0.4,0.1,0.8,0.2,1.4,0.4c0.2,0,0.4,0.1,0.7,0.2c0.3,0.1,0.6,0.2,0.9,0.4c0.3,0.2,0.6,0.5,0.8,0.8c0.2,0.3,0.3,0.7,0.3,1.3
			c0,0.4-0.1,0.8-0.2,1.2c-0.2,0.4-0.4,0.7-0.7,0.9c-0.3,0.3-0.7,0.5-1.2,0.6c-0.5,0.1-1,0.2-1.6,0.2c-0.5,0-1-0.1-1.5-0.2
			c-0.5-0.1-0.9-0.3-1.2-0.6c-0.4-0.3-0.6-0.6-0.9-1c-0.2-0.4-0.3-0.9-0.3-1.4h1.9C190.1,89.8,190.1,90,190.3,90.2"/>
	</g>
</g>
</svg>
