<?xml version="1.0" encoding="UTF-8" standalone="no"?>
<svg
   xmlns:dc="http://purl.org/dc/elements/1.1/"
   xmlns:cc="http://creativecommons.org/ns#"
   xmlns:rdf="http://www.w3.org/1999/02/22-rdf-syntax-ns#"
   xmlns:svg="http://www.w3.org/2000/svg"
   xmlns="http://www.w3.org/2000/svg"
   xmlns:sodipodi="http://sodipodi.sourceforge.net/DTD/sodipodi-0.dtd"
   xmlns:inkscape="http://www.inkscape.org/namespaces/inkscape"
   enable-background="new 0 0 128 128"
   height="128px"
   id="Layer_1"
   version="1.1"
   viewBox="0 0 128 128"
   width="128px"
   xml:space="preserve"
   sodipodi:docname="if_home_430102_red.svg"
   inkscape:version="0.92.1 r15371"><metadata
     id="metadata3691"><rdf:RDF><cc:Work
         rdf:about=""><dc:format>image/svg+xml</dc:format><dc:type
           rdf:resource="http://purl.org/dc/dcmitype/StillImage" /><dc:title></dc:title></cc:Work></rdf:RDF></metadata><defs
     id="defs3689" /><sodipodi:namedview
     pagecolor="#ffffff"
     bordercolor="#666666"
     borderopacity="1"
     objecttolerance="10"
     gridtolerance="10"
     guidetolerance="10"
     inkscape:pageopacity="0"
     inkscape:pageshadow="2"
     inkscape:window-width="1366"
     inkscape:window-height="705"
     id="namedview3687"
     showgrid="false"
     inkscape:zoom="4.1875"
     inkscape:cx="91.429457"
     inkscape:cy="64.119403"
     inkscape:window-x="-8"
     inkscape:window-y="-8"
     inkscape:window-maximized="1"
     inkscape:current-layer="Layer_1" /><path
     d="M99.258,114.97H75.254c-1.104,0-2-0.896-2-2V80.49H55.065v32.479c0,1.104-0.896,2-2,2H29.062c-1.104,0-2-0.896-2-2V62.088  c0-0.522,0.204-1.023,0.568-1.396L62.825,24.61c0.376-0.386,0.893-0.604,1.432-0.604c0.001,0,0.002,0,0.003,0  c0.54,0,1.057,0.22,1.433,0.607l35.001,36.081c0.362,0.373,0.564,0.873,0.564,1.393v50.882  C101.258,114.074,100.362,114.97,99.258,114.97z M77.254,110.97h20.004V62.898L64.253,28.875L31.062,62.902v48.067h20.004V78.49  c0-1.104,0.896-2,2-2h22.188c1.104,0,2,0.896,2,2V110.97z"
     id="path3680"
     style="fill:#e20613;fill-opacity:1" /><path
     d="M18.039,63.863c-0.5,0-1-0.186-1.388-0.56c-0.795-0.766-0.819-2.033-0.053-2.828l46.046-47.794  c0.375-0.39,0.893-0.61,1.433-0.612c0.591-0.003,1.059,0.215,1.438,0.602l45.94,46.991c0.772,0.79,0.758,2.056-0.031,2.828  c-0.791,0.772-2.057,0.757-2.828-0.032l-44.5-45.517L19.479,63.25C19.087,63.658,18.563,63.863,18.039,63.863z"
     id="path3682" /><path
     d="M36.4,44.805c-1.104,0-2-0.896-2-2V20c0-1.104,0.896-2,2-2s2,0.896,2,2v22.805C38.4,43.909,37.505,44.805,36.4,44.805z"
     id="path3684" /><path
     style="fill:#e20613;fill-opacity:1;stroke-width:0.23880596"
     d="M 28.398293,114.75151 C 27.04618,114.19733 27.11901,115.75015 27.11901,87.475315 V 61.504659 l 1.731343,-1.885774 c 4.648876,-5.063546 34.46534,-35.362682 34.908898,-35.474008 0.279668,-0.07019 0.736172,-0.06808 1.014452,0.0047 0.278281,0.07277 8.576535,8.452195 18.440561,18.62094 l 17.934596,18.488628 v 26.149791 c 0,20.271954 -0.066,26.255464 -0.29359,26.619904 -0.16147,0.25856 -0.60736,0.57949 -0.990856,0.71317 -0.436953,0.15233 -5.144616,0.24307 -12.609605,0.24307 -9.862063,0 -12.05487,-0.0595 -12.740485,-0.34602 -0.455482,-0.19031 -0.853201,-0.37837 -0.883818,-0.41791 -0.03061,-0.0395 -0.111212,-7.64801 -0.179105,-16.907708 l -0.123436,-16.835821 -9.129586,-0.06253 -9.129586,-0.06254 -0.06444,16.712705 -0.06444,16.712704 -0.543806,0.54386 -0.543805,0.54386 -12.47112,0.0478 c -6.859116,0.0263 -12.701412,-0.0466 -12.982881,-0.16196 z m 22.84012,-20.504026 0.119403,-16.797292 0.563768,-0.456439 c 0.537851,-0.435453 1.099931,-0.45644 12.22549,-0.45644 h 11.661719 l 0.670035,0.576263 0.670032,0.576263 0.06444,16.739787 0.06445,16.739784 9.965406,-0.0623 9.965407,-0.0623 0.04971,-24.119407 0.0497,-24.119433 L 81.429035,46.447761 C 72.695619,37.450746 65.257527,29.795298 64.899943,29.435653 L 64.249787,28.781754 47.594846,45.845213 30.939905,62.908671 V 86.87722 c 0,13.1827 0.07281,24.04136 0.16179,24.13034 0.08899,0.089 4.629283,0.13376 10.089552,0.0995 l 9.927763,-0.0623 z"
     id="path4502"
     inkscape:connector-curvature="0" /><path
     style="fill:#e20613;fill-opacity:1;stroke-width:0.23880596"
     d="M 28.398293,114.74828 C 27.046438,114.20274 27.11901,115.74979 27.11901,87.477223 V 61.50848 l 1.111034,-1.261703 c 0.611069,-0.693936 7.357037,-7.655732 14.99104,-15.470658 7.634004,-7.814925 15.220605,-15.591665 16.859115,-17.281644 3.055477,-3.151456 3.674975,-3.598637 4.647279,-3.354605 0.322297,0.08089 6.580606,6.342785 14.729695,14.738133 7.793115,8.028615 15.861837,16.338155 17.930493,18.465644 l 3.761194,3.868162 v 26.185915 c 0,17.280876 -0.0825,26.340136 -0.2427,26.639406 -0.48631,0.90867 -1.561023,0.97646 -14.285985,0.90112 l -12.260026,-0.0726 -0.456392,-0.56377 c -0.426044,-0.52628 -0.456389,-1.02781 -0.456389,-7.54295 0,-3.83855 -0.07121,-11.349035 -0.15824,-16.689964 l -0.15824,-9.710777 h -9.03579 -9.03579 v 16.615384 16.615387 l -0.698049,0.69805 -0.698046,0.69804 -12.37658,-0.0151 c -6.807118,-0.008 -12.606871,-0.10807 -12.88834,-0.22166 z m 64.311549,-3.82291 h 4.618123 L 97.315337,86.865672 97.302709,62.80597 80.897426,45.925938 C 71.87452,36.641921 64.402231,29.029847 64.29234,29.010219 64.182446,28.990591 56.633192,36.61976 47.51622,45.963929 L 30.939905,62.953328 v 23.986022 23.98602 h 9.993456 9.993455 L 51.082909,108 c 0.08585,-1.60896 0.155962,-9.123544 0.1558,-16.699085 l -2.96e-4,-13.773713 0.62922,-0.494944 c 0.617098,-0.485409 0.854388,-0.494945 12.316876,-0.494945 h 11.687659 l 0.698046,0.698049 0.698049,0.698047 v 16.653478 16.653483 l 5.411728,-0.1575 c 2.976449,-0.0866 7.489882,-0.1575 10.029851,-0.1575 z"
     id="path4504"
     inkscape:connector-curvature="0" /><path
     style="fill:#e20613;fill-opacity:1;stroke-width:0.23880596"
     d="m 28.287843,114.71902 c -0.342216,-0.1256 -0.745201,-0.49829 -0.895522,-0.82821 C 27.19247,113.45219 27.11901,106.32088 27.11901,87.358753 V 61.426546 l 1.000836,-1.101333 c 0.55046,-0.605734 8.66588,-8.961822 18.034267,-18.56909 10.883294,-11.160802 17.254728,-17.523299 17.646337,-17.621587 0.3371,-0.08461 0.804921,-0.09289 1.039606,-0.0184 0.234681,0.07448 5.099403,4.941513 10.810488,10.815617 5.711085,5.874103 13.780236,14.172726 17.931446,18.441382 l 7.54765,7.761194 0.01,26.282716 c 0.008,20.669355 -0.0541,26.366675 -0.28889,26.675815 -0.6357,0.83714 -1.494462,0.89221 -13.912675,0.89221 H 74.668032 L 74.055117,114.44776 73.4422,113.91045 73.286188,97.134328 73.130174,80.358209 h -9.035432 -9.035434 v 16.67174 16.671741 l -0.669784,0.64169 -0.669784,0.64169 -12.404842,-0.0189 c -7.246655,-0.011 -12.663572,-0.11379 -13.027055,-0.24719 z m 61.696838,-3.79256 7.343284,-0.001 V 86.903845 62.882314 L 85.930205,51.142651 C 79.661436,44.685834 72.225894,37.064571 69.406783,34.206511 L 64.281121,29.010036 63.460645,29.7886 c -0.451262,0.42821 -7.953036,8.071547 -16.670608,16.985192 L 30.939905,62.98042 v 23.972478 23.972472 h 9.991448 9.991446 l 0.157345,-6.62686 c 0.08654,-3.64478 0.15755,-11.159367 0.157805,-16.699088 l 4.78e-4,-10.07222 0.62922,-0.494944 c 0.617177,-0.485483 0.853715,-0.494945 12.373218,-0.494945 h 11.744012 l 0.641693,0.669784 0.641693,0.669784 v 16.680136 16.680133 l 2.686567,-0.1548 c 1.477612,-0.0851 5.991045,-0.15529 10.029851,-0.15589 z"
     id="path4506"
     inkscape:connector-curvature="0" /><path
     style="fill:#e20613;fill-opacity:1;stroke-width:0.23880596"
     d="m 28.287843,114.71902 c -0.342216,-0.1256 -0.745201,-0.49829 -0.895522,-0.82821 C 27.192454,113.45215 27.11901,106.3013 27.11901,87.280158 V 61.269354 l 4.5901,-4.724229 C 51.345192,36.335251 63.334924,24.208698 63.794821,24.093272 c 0.298897,-0.07502 0.756365,-0.06882 1.016597,0.01377 0.421428,0.133757 7.654679,7.488437 29.604912,30.10191 l 6.72226,6.925373 0.005,26.282716 c 0.004,20.663759 -0.0587,26.366759 -0.29337,26.675819 -0.6357,0.83714 -1.494462,0.89221 -13.912675,0.89221 H 74.668032 l -0.670035,-0.57619 -0.670032,-0.5762 -0.119403,-16.677536 -0.119403,-16.677535 -9.014926,-0.06257 -9.014925,-0.06257 v 16.67461 16.674611 l -0.669784,0.64169 -0.669784,0.64169 -12.404842,-0.0189 c -7.246655,-0.011 -12.663572,-0.11379 -13.027055,-0.24719 z m 60.478137,-3.79365 h 8.561985 V 86.910101 62.89483 L 85.098768,50.313087 C 78.37271,43.393128 70.925722,35.760299 68.549904,33.351246 L 64.230238,28.971148 49.674623,43.862063 C 41.669036,52.052067 34.178711,59.725626 33.029457,60.914417 l -2.089552,2.161435 v 23.924762 23.924756 h 9.99098 9.990981 l 0.158273,-10.06901 c 0.08705,-5.537955 0.158274,-13.052544 0.158274,-16.699085 v -6.630073 l 0.62922,-0.494944 c 0.617191,-0.485483 0.853729,-0.494945 12.373232,-0.494945 h 11.744012 l 0.641693,0.669784 0.641693,0.669784 v 16.677669 16.67767 l 1.467867,-0.15342 c 0.807326,-0.0844 5.320759,-0.15343 10.02985,-0.15343 z"
     id="path4508"
     inkscape:connector-curvature="0" /><path
     style="fill:#e20613;fill-opacity:1;stroke-width:0.23880596"
     d="m 16.628879,63.012571 c -0.63011,-0.801056 -0.62768,-1.525684 0.0078,-2.333598 0.276524,-0.351544 4.411336,-4.69141 9.188472,-9.644146 l 8.685701,-9.004976 0.0056,-11.264051 c 0.0031,-6.195228 0.07231,-11.438008 0.1539,-11.650623 0.162974,-0.424702 1.2929,-1.085326 1.856333,-1.085326 0.196214,0 0.658267,0.259257 1.026785,0.576128 l 0.670033,0.576128 0.119403,9.362154 0.119403,9.362156 12.157557,-12.62485 c 6.686656,-6.943668 12.447289,-12.753168 12.801407,-12.910001 0.354118,-0.156832 0.870734,-0.225818 1.14804,-0.153301 0.277304,0.07252 9.1311,8.959043 19.6751,19.747836 10.544002,10.788793 21.078877,21.564187 23.410827,23.945319 3.6898,3.767615 4.23991,4.427436 4.23991,5.08548 0,1.011036 -0.91881,1.928473 -1.93135,1.928473 -0.91864,0 1.45907,2.352719 -25.178577,-24.913886 L 64.062116,16.799091 63.534938,17.354769 c -1.637837,1.726382 -22.0095,22.892519 -32.425447,33.690007 -11.903519,12.339551 -12.170625,12.597015 -13.068776,12.597015 -0.706098,0 -1.030679,-0.144657 -1.411836,-0.62922 z"
     id="path4510"
     inkscape:connector-curvature="0" /><path
     style="fill:#e20613;fill-opacity:1;stroke-width:0.23880596"
     d="m 28.287843,114.71902 c -0.342216,-0.1256 -0.745201,-0.49829 -0.895522,-0.82821 -0.199874,-0.43867 -0.273311,-7.59782 -0.273311,-26.644002 V 61.202656 l 4.005035,-4.093866 c 2.20277,-2.251625 10.33014,-10.569942 18.060823,-18.485148 7.806189,-7.992514 14.299804,-14.452527 14.604594,-14.529026 0.301846,-0.07576 0.763835,-0.06949 1.026646,0.01392 0.420361,0.133418 10.829285,10.71461 30.314651,30.816359 l 6.018101,6.208473 v 26.283198 c 0,20.657694 -0.0639,26.367324 -0.29851,26.676294 -0.63607,0.83764 -1.492718,0.89221 -14.003768,0.89221 H 74.485847 l -0.578943,-0.61616 -0.578939,-0.61616 -0.06444,-16.540932 -0.06444,-16.540938 -3.398248,-0.155461 c -1.869034,-0.0855 -5.950483,-0.155854 -9.069886,-0.156334 l -5.671642,-8.74e-4 v 16.67174 16.671739 l -0.669784,0.64169 -0.669784,0.64169 -12.404842,-0.0189 c -7.246655,-0.011 -12.663572,-0.11379 -13.027055,-0.24719 z m 59.75654,-3.79365 h 9.283582 V 86.921722 62.91807 L 84.850353,50.087838 C 77.987666,43.031209 70.545276,35.393321 68.311709,33.114753 L 64.250675,28.971902 50.522525,43.023264 C 42.972042,50.751513 35.477118,58.42614 33.867139,60.077989 l -2.927234,3.003363 v 23.92201 23.922008 h 9.998611 9.998609 l 0.165732,-16.656713 0.165731,-16.656717 0.595243,-0.537313 0.595245,-0.537314 h 11.7629 11.762901 l 0.641693,0.669784 0.641693,0.669784 v 16.6735 16.673499 l 0.746269,-0.14925 c 0.410448,-0.0821 4.923881,-0.14926 10.029851,-0.14926 z"
     id="path4512"
     inkscape:connector-curvature="0" /></svg>